<svg xmlns="http://www.w3.org/2000/svg" version="1.1" xmlns:xlink="http://www.w3.org/1999/xlink" xmlns:svgjs="http://svgjs.dev/svgjs" width="2000" height="1252" viewBox="0 0 2000 1252"><g transform="matrix(1,0,0,1,-1.2121212121212466,213.6718365917236)"><svg viewBox="0 0 396 248" data-background-color="#151515" preserveAspectRatio="xMidYMid meet" height="1252" width="2000" xmlns="http://www.w3.org/2000/svg" xmlns:xlink="http://www.w3.org/1999/xlink"><g id="tight-bounds" transform="matrix(1,0,0,1,0.2400000000000091,0.4000000000000057)"><svg viewBox="0 0 395.52 247.2" height="247.2" width="395.52"><g><svg></svg></g><g><svg viewBox="0 0 395.52 247.2" height="247.2" width="395.52"><g transform="matrix(1,0,0,1,75.54432,83.14308112240748)"><svg viewBox="0 0 244.43135999999998 80.91383775518503" height="80.91383775518503" width="244.43135999999998"><g><svg viewBox="0 0 244.43135999999998 80.91383775518503" height="80.91383775518503" width="244.43135999999998"><g><svg viewBox="0 0 244.43135999999998 80.91383775518503" height="80.91383775518503" width="244.43135999999998"><g id="textblocktransform"><svg viewBox="0 0 244.43135999999998 80.91383775518503" height="80.91383775518503" width="244.43135999999998" id="textblock"><g><svg viewBox="0 0 244.43135999999998 80.91383775518503" height="80.91383775518503" width="244.43135999999998"><g transform="matrix(1,0,0,1,0,0)"><svg width="244.43135999999998" viewBox="0.35 -29.85 122.94000000000001 40.7" height="80.91383775518503" data-palette-color="#4bbbe5"><path d="M20.8-29.85L22.35-25.1Q21.3-24.6 19.83-24.4 18.35-24.2 16.15-24.2L16.15-24.2Q18.25-23.2 19.28-21.53 20.3-19.85 20.3-17.4L20.3-17.4Q20.3-13.4 17.85-10.95 15.4-8.5 11.2-8.5L11.2-8.5Q9.95-8.5 8.65-8.9L8.65-8.9Q7.75-8.15 7.75-6.85L7.75-6.85Q7.75-5.85 8.3-5.35 8.85-4.85 10.35-4.85L10.35-4.85 13.15-4.85Q17.15-4.85 19.5-2.78 21.85-0.7 21.85 2.5L21.85 2.5Q21.85 6.3 18.93 8.58 16 10.85 10.6 10.85L10.6 10.85Q4.9 10.85 2.63 8.75 0.35 6.65 0.35 2.6L0.35 2.6 5.8 2.6Q5.8 4.75 6.8 5.65 7.8 6.55 10.65 6.55L10.65 6.55Q13.4 6.55 14.55 5.6 15.7 4.65 15.7 2.9L15.7 2.9Q15.7 1.2 14.75 0.4 13.8-0.4 11.8-0.4L11.8-0.4 9.9-0.4Q6.1-0.4 4.35-1.75 2.6-3.1 2.6-5.45L2.6-5.45Q2.6-6.8 3.33-8.03 4.05-9.25 5.3-10.2L5.3-10.2Q3.25-11.5 2.3-13.3 1.35-15.1 1.35-17.7L1.35-17.7Q1.35-22.05 3.95-24.58 6.55-27.1 10.95-27.1L10.95-27.1Q14.2-27.1 16.32-27.8 18.45-28.5 20.8-29.85L20.8-29.85ZM10.95-23Q9.2-23 8.3-21.75 7.4-20.5 7.4-17.8L7.4-17.8Q7.4-15.25 8.3-13.88 9.2-12.5 10.9-12.5L10.9-12.5Q12.65-12.5 13.5-13.73 14.35-14.95 14.35-17.85L14.35-17.85Q14.35-20.55 13.53-21.78 12.7-23 10.95-23L10.95-23ZM43.75-26.45L36.75 0.1Q35.45 4.9 32.55 7.65 29.65 10.4 24.8 10.85L24.8 10.85 24.1 6.5Q27.25 5.85 28.82 4.42 30.4 3 31.3 0L31.3 0 29 0 22.3-26.45 28.55-26.45 32.95-4.1 37.65-26.45 43.75-26.45ZM70.3-27.15Q72.95-27.15 74.55-25.1 76.15-23.05 76.15-19.6L76.15-19.6 76.15 0 70.09 0 70.09-18.95Q70.09-20.85 69.59-21.68 69.09-22.5 68.15-22.5L68.15-22.5Q66.2-22.5 64.4-18.8L64.4-18.8 64.4 0 58.4 0 58.4-18.95Q58.4-22.5 56.5-22.5L56.5-22.5Q54.45-22.5 52.7-18.8L52.7-18.8 52.7 0 46.65 0 46.65-26.45 52-26.45 52.4-23.05Q55-27.15 58.65-27.15L58.65-27.15Q60.5-27.15 61.84-26 63.2-24.85 63.9-22.75L63.9-22.75Q66.55-27.15 70.3-27.15L70.3-27.15ZM100.49-13.85Q100.49-13.4 100.34-11.3L100.34-11.3 86.69-11.3Q86.89-7.2 88.12-5.58 89.34-3.95 91.59-3.95L91.59-3.95Q93.14-3.95 94.39-4.48 95.64-5 97.09-6.15L97.09-6.15 99.64-2.65Q96.14 0.75 91.24 0.75L91.24 0.75Q86.04 0.75 83.27-2.85 80.49-6.45 80.49-13L80.49-13Q80.49-19.55 83.14-23.35 85.79-27.15 90.64-27.15L90.64-27.15Q95.29-27.15 97.89-23.78 100.49-20.4 100.49-13.85L100.49-13.85ZM94.49-15.3L94.49-15.65Q94.49-19.4 93.59-21.13 92.69-22.85 90.69-22.85L90.69-22.85Q88.84-22.85 87.87-21.18 86.89-19.5 86.69-15.3L86.69-15.3 94.49-15.3ZM122.24-26.45L116.14-14.15 123.29 0 116.79 0 112.39-10.65 108.09 0 101.74 0 108.89-13.95 102.44-26.45 108.84-26.45 112.49-17.25 116.04-26.45 122.24-26.45Z" opacity="1" transform="matrix(1,0,0,1,0,0)" fill="#4bbbe5" class="wordmark-text-0" data-fill-palette-color="primary" id="text-0"></path></svg></g></svg></g></svg></g></svg></g><g></g></svg></g></svg></g><g><path d="M91.039 64.041A122.216 122.216 0 0 1 304.481 64.041L297.184 64.041A114.919 114.919 0 0 0 98.336 64.041L91.039 64.041M91.039 183.159A122.216 122.216 0 0 0 304.481 183.159L297.184 183.159A114.919 114.919 0 0 1 98.336 183.159L91.039 183.159" fill="#000000" stroke="transparent" data-fill-palette-color="tertiary"></path></g></svg></g><defs></defs></svg><rect width="395.52" height="247.2" fill="none" stroke="none" visibility="hidden"></rect></g></svg></g></svg>